<mxfile host="app.diagrams.net" agent="Mozilla/5.0 (X11; Ubuntu; Linux x86_64; rv:136.0) Gecko/20100101 Firefox/136.0" version="26.1.3">
  <diagram name="Page-1" id="c4acf3e9-155e-7222-9cf6-157b1a14988f">
    <mxGraphModel dx="1434" dy="760" grid="1" gridSize="10" guides="1" tooltips="1" connect="1" arrows="1" fold="1" page="1" pageScale="1" pageWidth="850" pageHeight="1100" background="none" math="0" shadow="0">
      <root>
        <mxCell id="0" />
        <mxCell id="1" parent="0" />
        <mxCell id="PCYHiJ5DkW37FASSGC_T-1" value="bitbake/lib/bb/cooker.py" style="swimlane;whiteSpace=wrap;html=1;" vertex="1" parent="1">
          <mxGeometry x="40" y="30" width="360" height="310" as="geometry" />
        </mxCell>
        <mxCell id="PCYHiJ5DkW37FASSGC_T-2" value="class BBCooker()" style="swimlane;fontStyle=1;align=center;verticalAlign=top;childLayout=stackLayout;horizontal=1;startSize=26;horizontalStack=0;resizeParent=1;resizeParentMax=0;resizeLast=0;collapsible=1;marginBottom=0;whiteSpace=wrap;html=1;" vertex="1" parent="PCYHiJ5DkW37FASSGC_T-1">
          <mxGeometry x="20" y="50" width="320" height="130" as="geometry" />
        </mxCell>
        <mxCell id="PCYHiJ5DkW37FASSGC_T-3" value="+ field: type" style="text;strokeColor=none;fillColor=none;align=left;verticalAlign=top;spacingLeft=4;spacingRight=4;overflow=hidden;rotatable=0;points=[[0,0.5],[1,0.5]];portConstraint=eastwest;whiteSpace=wrap;html=1;" vertex="1" parent="PCYHiJ5DkW37FASSGC_T-2">
          <mxGeometry y="26" width="320" height="26" as="geometry" />
        </mxCell>
        <mxCell id="PCYHiJ5DkW37FASSGC_T-4" value="" style="line;strokeWidth=1;fillColor=none;align=left;verticalAlign=middle;spacingTop=-1;spacingLeft=3;spacingRight=3;rotatable=0;labelPosition=right;points=[];portConstraint=eastwest;strokeColor=inherit;" vertex="1" parent="PCYHiJ5DkW37FASSGC_T-2">
          <mxGeometry y="52" width="320" height="8" as="geometry" />
        </mxCell>
        <mxCell id="PCYHiJ5DkW37FASSGC_T-5" value="&lt;div&gt;+defInitConfigorationData(self):&lt;/div&gt;&lt;div&gt;&lt;br&gt;&lt;/div&gt;bb.data.setVAR(&#39;BB_CMDLINE&#39;, self.ui_commandline)" style="text;strokeColor=none;fillColor=none;align=left;verticalAlign=top;spacingLeft=4;spacingRight=4;overflow=hidden;rotatable=0;points=[[0,0.5],[1,0.5]];portConstraint=eastwest;whiteSpace=wrap;html=1;" vertex="1" parent="PCYHiJ5DkW37FASSGC_T-2">
          <mxGeometry y="60" width="320" height="70" as="geometry" />
        </mxCell>
        <mxCell id="PCYHiJ5DkW37FASSGC_T-6" value="bb.data.setVAR(&#39;BB_CMDLINE&#39;, self.ui_commandline)" style="text;html=1;align=center;verticalAlign=middle;whiteSpace=wrap;rounded=0;" vertex="1" parent="1">
          <mxGeometry x="450" y="150" width="320" height="30" as="geometry" />
        </mxCell>
      </root>
    </mxGraphModel>
  </diagram>
</mxfile>
